<svg
    width="1280"
    height="275"
    viewBox="0 0 1280 275"
    fill="none"
    xmlns="http://www.w3.org/2000/svg"
>
    <path d="M322.83 136.04C329.749 132.432 335.564 127.021 339.66 120.38C344.109 113.361 346.42 105.199 346.31 96.89C346.31 86.45 344.18 77.4033 339.92 69.75C335.606 62.0465 328.991 55.8854 321 52.13C312.653 48.05 302.653 46.0067 291 46H208V228.68H293.6C305.247 228.68 315.247 226.637 323.6 222.55C331.591 218.795 338.206 212.634 342.52 204.93C346.78 197.283 348.91 188.237 348.91 177.79C349.09 168.669 346.499 159.708 341.48 152.09C336.941 145.054 330.464 139.48 322.83 136.04ZM241.38 74.97H287.05C295.23 74.97 301.563 77.1433 306.05 81.49C310.537 85.8367 312.8 91.8367 312.84 99.49C312.957 104.039 311.877 108.539 309.71 112.54C307.641 116.172 304.554 119.12 300.83 121.02C296.531 123.127 291.785 124.156 287 124.02H241.38V74.97ZM312.38 188.36C310.362 192.032 307.261 194.993 303.5 196.84C299.177 198.863 294.441 199.846 289.67 199.71H241.38V150.65H289.68C297.86 150.65 304.21 152.823 308.73 157.17C313.25 161.517 315.513 167.517 315.52 175.17C315.627 179.764 314.545 184.307 312.38 188.36Z" fill="black" />
    <path d="M429.071 186.64H427.756L389.259 92H356L412.572 224.652L391.356 275H423.571L499 92H466.524L429.071 186.64Z" fill="black" />
    <path d="M556.38 54.6099H530.3L525.86 91.1499H504.2V119.85H525.86V190.58C525.86 198.413 527.427 205.197 530.56 210.93C533.622 216.613 538.36 221.215 544.13 224.11C550.044 227.163 557.263 228.687 565.79 228.68H590.06V200.23H570.49C568.639 200.283 566.795 199.964 565.069 199.292C563.343 198.621 561.769 197.61 560.44 196.32C559.101 194.995 558.054 193.405 557.365 191.652C556.676 189.899 556.361 188.022 556.44 186.14V119.85H590.11V91.1499H556.38V54.6099Z" fill="black" />
    <path d="M706.71 97.6701C696.97 91.5901 685.487 88.5467 672.26 88.5401C659.033 88.5334 647.463 91.3601 637.55 97.0201C627.619 102.675 619.609 111.173 614.55 121.42C609.15 132.027 606.453 144.9 606.46 160.04C606.46 175.007 609.2 187.84 614.68 198.54C619.753 208.81 627.803 217.312 637.78 222.94C647.693 228.507 659.36 231.29 672.78 231.29C683.74 231.29 693.407 229.42 701.78 225.68C709.659 222.297 716.632 217.111 722.14 210.54C727.487 203.951 731.477 196.368 733.88 188.23H700.97C697.637 193.803 693.853 197.893 689.62 200.5C685.387 203.107 679.777 204.427 672.79 204.46C664.79 204.46 658.123 202.633 652.79 198.98C647.457 195.327 643.553 189.96 641.08 182.88C639.626 178.692 638.62 174.361 638.08 169.96H735.66C736.013 168.227 736.317 166.14 736.57 163.7C736.834 161.185 736.964 158.659 736.96 156.13C737.098 144.358 734.416 132.724 729.14 122.2C724.074 112.107 716.31 103.616 706.71 97.6701ZM638.2 146.46C638.8 142.68 639.855 138.987 641.34 135.46C643.788 129.502 647.911 124.382 653.21 120.72C658.43 117.153 664.763 115.37 672.21 115.37C678.377 115.212 684.47 116.744 689.83 119.8C694.622 122.572 698.604 126.551 701.38 131.34C704.062 136.013 705.869 141.138 706.71 146.46H638.2Z" fill="black" />
    <path d="M891.22 70.27V46H758.64V74.97H849.2L756.03 204.41V228.68H892.52V199.71H798.05L891.22 70.27Z" fill="black" />
    <path d="M1003.95 97.6701C994.21 91.5901 982.73 88.5467 969.51 88.5401C956.29 88.5334 944.72 91.3601 934.8 97.0201C924.868 102.673 916.857 111.171 911.8 121.42C906.407 132.027 903.71 144.9 903.71 160.04C903.71 175.007 906.45 187.84 911.93 198.54C917.003 208.81 925.053 217.312 935.03 222.94C944.937 228.507 956.603 231.29 970.03 231.29C980.99 231.29 990.657 229.42 999.03 225.68C1006.91 222.297 1013.88 217.111 1019.38 210.54C1024.73 203.953 1028.72 196.37 1031.12 188.23H998.24C994.94 193.803 991.157 197.893 986.89 200.5C982.623 203.107 977.003 204.427 970.03 204.46C962.03 204.46 955.363 202.633 950.03 198.98C944.697 195.327 940.783 189.977 938.29 182.93C936.841 178.74 935.835 174.41 935.29 170.01H1032.87C1033.22 168.277 1033.53 166.19 1033.79 163.75C1034.05 161.235 1034.18 158.708 1034.18 156.18C1034.31 144.407 1031.63 132.773 1026.35 122.25C1021.3 112.14 1013.55 103.631 1003.95 97.6701ZM935.44 146.46C936.045 142.682 937.099 138.989 938.58 135.46C941.035 129.504 945.161 124.385 950.46 120.72C955.673 117.153 962.023 115.37 969.51 115.37C975.674 115.214 981.764 116.746 987.12 119.8C991.883 122.567 995.843 126.527 998.61 131.29C1001.29 135.971 1003.1 141.101 1003.95 146.43L935.44 146.46Z" fill="black" />
    <path d="M1105.47 95.0603C1099.59 97.8019 1094.67 102.261 1091.37 107.85H1090.07L1086.68 91.1503H1060.58V228.68H1091.38V154.57C1091.23 148.362 1092.77 142.229 1095.82 136.82C1098.77 131.785 1103.06 127.671 1108.22 124.94C1113.55 122.067 1119.86 120.634 1127.14 120.64H1141.49V91.1503H1125.31C1118.49 91.0129 1111.73 92.3465 1105.47 95.0603Z" fill="black" />
    <path d="M1271.57 121.46C1266.45 111.227 1258.41 102.738 1248.48 97.0601C1238.56 91.4134 1226.99 88.5867 1213.77 88.5801C1200.37 88.5801 1188.7 91.4068 1178.77 97.0601C1168.83 102.736 1160.79 111.226 1155.67 121.46C1150.19 132.067 1147.45 144.94 1147.45 160.08C1147.45 175.047 1150.19 187.88 1155.67 198.58C1160.74 208.85 1168.79 217.353 1178.77 222.98C1188.69 228.547 1200.36 231.33 1213.77 231.33C1226.99 231.33 1238.56 228.547 1248.48 222.98C1258.45 217.351 1266.5 208.848 1271.57 198.58C1277.06 187.88 1279.81 175.047 1279.8 160.08C1279.8 144.927 1277.06 132.053 1271.57 121.46ZM1244.43 184.09C1241.39 190.71 1237.17 195.627 1231.78 198.84C1226.34 202.071 1220.11 203.742 1213.78 203.67C1207.36 203.769 1201.04 202.098 1195.51 198.84C1190.12 195.62 1185.9 190.703 1182.85 184.09C1179.8 177.477 1178.28 169.477 1178.29 160.09C1178.29 150.53 1179.81 142.44 1182.85 135.82C1185.89 129.2 1190.11 124.287 1195.51 121.08C1201.04 117.822 1207.36 116.151 1213.78 116.25C1220.11 116.178 1226.34 117.849 1231.78 121.08C1237.17 124.3 1241.38 129.213 1244.43 135.82C1247.48 142.427 1249 150.517 1249 160.09C1249 169.457 1247.48 177.443 1244.43 184.05V184.09Z" fill="black" />
    <path d="M148.48 126.85L132.81 137.3L124.81 131.96L92.9405 110.69L132.83 84.1L133.83 83.41L132.83 82.75L104.2 63.68L88.5405 53.23L47.6105 80.51L44.2605 82.75V149.52C44.2425 162.546 47.4494 175.373 53.5949 186.858C59.7404 198.343 68.6335 208.128 79.4805 215.34L88.5405 221.34L97.5405 215.34C108.179 208.27 116.943 198.723 123.079 187.52C129.216 176.317 132.541 163.792 132.77 151.02C132.77 150.53 132.77 150.02 132.77 149.52V137.3L176 166.08C175.427 170.213 174.664 174.287 173.71 178.3C166.491 208.563 148.071 234.966 122.16 252.19L88.5605 274.6L54.9605 252.19C39.9975 242.239 27.3845 229.145 18.0005 213.82C10.0226 200.802 4.55804 186.403 1.89047 171.37C0.612738 164.157 -0.0197629 156.845 0.000470419 149.52V59.04L7.70047 53.92L88.5505 0L177.09 59V107.74L173.75 109.98L148.48 126.85Z" fill="url(#paint0_linear_1_589)" />
    <defs>
        <linearGradient id="paint0_linear_1_589" x1="-0.00952958" y1="137.3" x2="177.08" y2="137.3" gradientUnits="userSpaceOnUse">
            <stop stopColor="#3972FF" />
            <stop offset="1" stopColor="#0D4FD1" />
        </linearGradient>
    </defs>
</svg>